<svg width="102" height="94" viewBox="0 0 102 94" fill="none" xmlns="http://www.w3.org/2000/svg">
<g filter="url(#filter0_df_2_206)">
<path d="M37.5483 29.0229C44.102 29.0229 49.4336 36.1757 49.4336 44.9676V66.5465C49.4348 66.9608 49.6002 67.3578 49.8935 67.6503C50.1869 67.9429 50.5843 68.1072 50.9987 68.1072C51.413 68.1072 51.8104 67.9429 52.1038 67.6503C52.3972 67.3578 52.5626 66.9608 52.5637 66.5465V44.9676C52.5637 36.1757 57.8953 29.0229 64.449 29.0229C66.4454 29.0822 68.3847 29.7023 70.0452 30.812C71.7058 31.9218 73.0204 33.4766 73.8388 35.2984C73.9398 35.5767 74.1146 35.8223 74.3446 36.0088C74.5746 36.1952 74.851 36.3155 75.1442 36.3567C75.4373 36.398 75.7362 36.3586 76.0087 36.2428C76.2812 36.127 76.517 35.9391 76.6908 35.6995C76.8291 35.5053 76.9208 35.2818 76.9585 35.0463C76.9963 34.8109 76.9791 34.57 76.9084 34.3423C75.2143 28.8541 69.2243 25.8928 64.449 25.8928C59.3461 25.8928 54.6307 29.1757 51.8356 34.6742C51.7486 34.8183 51.6258 34.9375 51.4792 35.0203C51.3325 35.103 51.167 35.1465 50.9987 35.1465C50.8303 35.1465 50.6648 35.103 50.5182 35.0203C50.3715 34.9375 50.2488 34.8183 50.1617 34.6742C47.3666 29.1757 42.6513 25.8928 37.5483 25.8928C32.773 25.8928 26.783 28.8541 25.0895 34.3423C25.0198 34.5718 25.0036 34.8142 25.0421 35.051C25.0806 35.2877 25.1727 35.5125 25.3115 35.7082C25.4503 35.9038 25.6321 36.0651 25.8428 36.1796C26.0536 36.2941 26.2878 36.3589 26.5275 36.3689C26.8798 36.3975 27.2316 36.3077 27.5271 36.1137C27.8226 35.9197 28.0448 35.6325 28.1585 35.2978C28.9771 33.4761 30.2918 31.9215 31.9523 30.8119C33.6128 29.7022 35.552 29.0822 37.5483 29.0229Z" fill="white"/>
</g>
<defs>
<filter id="filter0_df_2_206" x="-7" y="-11" width="116" height="116" filterUnits="userSpaceOnUse" color-interpolation-filters="sRGB">
<feFlood flood-opacity="0" result="BackgroundImageFix"/>
<feColorMatrix in="SourceAlpha" type="matrix" values="0 0 0 0 0 0 0 0 0 0 0 0 0 0 0 0 0 0 127 0" result="hardAlpha"/>
<feOffset/>
<feGaussianBlur stdDeviation="12.5"/>
<feComposite in2="hardAlpha" operator="out"/>
<feColorMatrix type="matrix" values="0 0 0 0 1 0 0 0 0 1 0 0 0 0 1 0 0 0 1 0"/>
<feBlend mode="normal" in2="BackgroundImageFix" result="effect1_dropShadow_2_206"/>
<feBlend mode="normal" in="SourceGraphic" in2="effect1_dropShadow_2_206" result="shape"/>
<feGaussianBlur stdDeviation="0.5" result="effect2_foregroundBlur_2_206"/>
</filter>
</defs>
</svg>
