<svg width="102" height="90" viewBox="0 0 102 90" fill="none" xmlns="http://www.w3.org/2000/svg">
<g filter="url(#filter0_df_2_222)">
<path d="M34.9361 50.5393C37.5634 50.5347 40.0817 49.4882 41.9383 47.6293C43.795 45.7703 44.8384 43.2508 44.8397 40.6235C44.8454 38.9608 44.4289 37.324 43.6292 35.8663C42.8295 34.4086 41.6729 33.1777 40.2676 32.2892C40.115 32.1925 39.9936 32.0538 39.9179 31.8898C39.8422 31.7258 39.8154 31.5434 39.8408 31.3646C39.8661 31.1858 39.9426 31.0181 40.0609 30.8816C40.1792 30.7451 40.3344 30.6456 40.5078 30.5952C45.574 29.171 50.8506 28.6463 56.098 29.0449C62.5749 29.576 68.8806 31.3944 74.6458 34.3934C74.9151 34.5442 75.2228 34.6121 75.5305 34.5888C75.8382 34.5654 76.1322 34.4518 76.3756 34.2621C76.619 34.0724 76.801 33.8151 76.8988 33.5225C76.9966 33.2298 77.0059 32.9148 76.9255 32.6168C76.8745 32.417 76.7823 32.23 76.655 32.0678C76.5276 31.9056 76.3678 31.7718 76.1858 31.6748C70.0529 28.3679 63.2868 26.4032 56.3365 25.9111C55.2349 25.8567 54.1528 25.8294 53.0903 25.8292C43.5841 25.8292 35.6612 28.0141 29.5039 32.3399C28.2505 33.1746 27.2001 34.2795 26.4298 35.5734C25.6596 36.8673 25.189 38.3174 25.0528 39.8171C25.0308 40.0867 25.02 40.3555 25.0204 40.6234C25.0233 43.2524 26.0689 45.7728 27.9279 47.6317C29.7868 49.4907 32.3072 50.5363 34.9361 50.5393ZM31.1391 35.0151C32.2568 34.2495 33.5814 33.843 34.9361 33.8499C36.5638 33.8481 38.1381 34.4309 39.3723 35.492C40.6066 36.5532 41.4188 38.0223 41.6611 39.6319C41.9034 41.2414 41.5597 42.8845 40.6926 44.262C39.8255 45.6396 38.4926 46.66 36.9365 47.1375C35.3804 47.615 33.7046 47.5179 32.214 46.8639C30.7235 46.2099 29.5173 45.0424 28.8151 43.574C28.1128 42.1056 27.9611 40.4338 28.3877 38.863C28.8142 37.2921 29.7906 35.9267 31.1391 35.0151ZM67.0629 39.4619C64.4356 39.4665 61.9173 40.513 60.0607 42.372C58.204 44.2309 57.1606 46.7504 57.1593 49.3778C57.1535 51.0404 57.5699 52.6773 58.3696 54.1351C59.1693 55.5928 60.3261 56.8236 61.7315 57.712C61.884 57.8088 62.0054 57.9474 62.0811 58.1114C62.1568 58.2754 62.1836 58.4578 62.1582 58.6366C62.1329 58.8154 62.0564 58.9832 61.9381 59.1196C61.8198 59.2561 61.6646 59.3556 61.4912 59.406C56.4248 60.8287 51.1484 61.3534 45.901 60.9563C39.4241 60.4252 33.1184 58.6069 27.3532 55.6078C27.1148 55.4805 26.8489 55.4135 26.5786 55.4128C26.3161 55.4116 26.0576 55.4773 25.8275 55.6037C25.5974 55.7302 25.4034 55.9132 25.2636 56.1354C25.1482 56.3195 25.0717 56.5253 25.039 56.7402C25.0063 56.955 25.0181 57.1742 25.0735 57.3844C25.1245 57.5842 25.2166 57.7712 25.344 57.9334C25.4714 58.0956 25.6312 58.2295 25.8132 58.3264C31.946 61.6336 38.7122 63.5983 45.6625 64.0901C56.6206 64.6287 65.6506 62.4707 72.4951 57.6613C73.7485 56.8267 74.7989 55.7218 75.5692 54.4278C76.3394 53.1339 76.81 51.6838 76.9462 50.1841C76.9682 49.9151 76.979 49.6464 76.9786 49.3778C76.9757 46.7489 75.9301 44.2284 74.0711 42.3695C72.2122 40.5105 69.6918 39.4649 67.0629 39.4619H67.0629ZM70.8599 54.9861C69.7422 55.7517 68.4176 56.1582 67.0629 56.1513C65.4352 56.1531 63.861 55.5703 62.6267 54.5092C61.3925 53.448 60.5803 51.9789 60.338 50.3694C60.0957 48.7598 60.4394 47.1168 61.3065 45.7392C62.1736 44.3617 63.5065 43.3414 65.0626 42.8638C66.6187 42.3863 68.2945 42.4834 69.785 43.1374C71.2756 43.7914 72.4817 44.9589 73.184 46.4273C73.8862 47.8957 74.0379 49.5675 73.6113 51.1383C73.1848 52.7091 72.2084 54.0746 70.8599 54.9861Z" fill="white"/>
</g>
<defs>
<filter id="filter0_df_2_222" x="-7" y="-13" width="116" height="116" filterUnits="userSpaceOnUse" color-interpolation-filters="sRGB">
<feFlood flood-opacity="0" result="BackgroundImageFix"/>
<feColorMatrix in="SourceAlpha" type="matrix" values="0 0 0 0 0 0 0 0 0 0 0 0 0 0 0 0 0 0 127 0" result="hardAlpha"/>
<feOffset/>
<feGaussianBlur stdDeviation="12.5"/>
<feComposite in2="hardAlpha" operator="out"/>
<feColorMatrix type="matrix" values="0 0 0 0 1 0 0 0 0 1 0 0 0 0 1 0 0 0 1 0"/>
<feBlend mode="normal" in2="BackgroundImageFix" result="effect1_dropShadow_2_222"/>
<feBlend mode="normal" in="SourceGraphic" in2="effect1_dropShadow_2_222" result="shape"/>
<feGaussianBlur stdDeviation="0.5" result="effect2_foregroundBlur_2_222"/>
</filter>
</defs>
</svg>
