<svg width="96" height="102" viewBox="0 0 96 102" fill="none" xmlns="http://www.w3.org/2000/svg">
<g filter="url(#filter0_df_2_225)">
<path d="M51.2231 28.1464C51.6492 28.1467 52.0749 28.1712 52.4982 28.2198C54.0294 28.3974 55.5046 28.9011 56.8247 29.6969C58.1447 30.4927 59.2789 31.5622 60.1508 32.8332C61.0228 34.1042 61.6122 35.5474 61.8795 37.0654C62.1467 38.5834 62.0856 40.1411 61.7001 41.6335L53.3895 65.1831C52.6856 67.1397 52.6899 69.2812 53.4017 71.235C54.1135 73.1888 55.4877 74.8312 57.2853 75.8765C58.4362 76.5017 59.7089 76.8703 61.0157 76.957C62.3226 77.0436 63.6328 76.8463 64.8562 76.3785C66.0795 75.9107 67.1871 75.1835 68.1027 74.247C69.0184 73.3104 69.7204 72.1868 70.1605 70.9531C70.245 70.7231 70.2718 70.4759 70.2385 70.2331C70.2053 69.9903 70.113 69.7594 69.9697 69.5606C69.8149 69.3383 69.6088 69.1567 69.3688 69.0311C69.1288 68.9055 68.8621 68.8397 68.5913 68.8392C68.2807 68.852 67.9819 68.9615 67.7366 69.1525C67.4913 69.3434 67.3118 69.6062 67.2232 69.9041C66.8046 71.0559 66.0428 72.0515 65.0405 72.7566C64.0382 73.4617 62.8437 73.8423 61.6182 73.847C60.6269 73.8514 59.6506 73.6058 58.7793 73.133C57.6281 72.4435 56.7548 71.3726 56.311 70.1063C55.8672 68.8399 55.881 67.4581 56.35 66.2009C64.668 42.6243 64.668 42.6243 64.6777 42.6005C65.2219 40.7826 65.3432 38.8644 65.0323 36.9925C64.5388 33.5047 62.7413 30.3338 60.0022 28.119C57.2631 25.9041 53.7862 24.8102 50.2724 25.0576C46.7586 25.305 43.4693 26.8755 41.0677 29.4523C38.666 32.0291 37.3306 35.4206 37.3307 38.9431C37.3298 40.1337 37.4835 41.3193 37.788 42.4702L39.0564 46.1081C39.1121 46.268 39.1234 46.4399 39.0893 46.6057C39.0552 46.7715 38.9769 46.925 38.8627 47.05C38.7485 47.175 38.6027 47.2667 38.4406 47.3156C38.2785 47.3645 38.1063 47.3686 37.942 47.3276C37.1971 47.1447 36.4326 47.0533 35.6655 47.0556C34.3427 47.0576 33.0336 47.3239 31.815 47.8387C30.5964 48.3535 29.493 49.1066 28.5694 50.0536C27.6458 51.0007 26.9207 52.1227 26.4366 53.3538C25.9525 54.5849 25.7192 55.9003 25.7503 57.2228C25.7732 57.9116 25.865 58.5964 26.0242 59.267C26.377 60.6463 27.0197 61.9346 27.9094 63.0462C28.7992 64.1577 29.9155 65.0668 31.1841 65.7131C32.4044 66.3613 33.7487 66.7421 35.1276 66.8302C36.5065 66.9184 37.8883 66.7117 39.1811 66.2241C41.5634 65.2273 43.4817 63.3681 44.5524 61.0181C45.6232 58.6682 45.7676 56.0007 44.9567 53.5489L40.8133 41.6555C40.5804 40.7701 40.4619 39.8586 40.4606 38.9432C40.4639 37.4241 40.7865 35.9227 41.4074 34.5363C42.0283 33.1499 42.9337 31.9095 44.0648 30.8954C46.0268 29.1221 48.5784 28.1422 51.2231 28.1464ZM35.6656 63.7441C34.3242 63.7453 33.0127 63.3486 31.8969 62.6041C30.7811 61.8597 29.9112 60.801 29.3974 59.562C28.8835 58.323 28.7487 56.9594 29.0101 55.6437C29.2715 54.3281 29.9173 53.1196 30.8658 52.1711C31.8142 51.2227 33.0228 50.5769 34.3384 50.3155C35.654 50.0541 37.0176 50.1889 38.2566 50.7027C39.4956 51.2166 40.5543 52.0865 41.2988 53.2023C42.0432 54.318 42.44 55.6296 42.4387 56.9709C42.4352 58.7662 41.7204 60.4869 40.451 61.7564C39.1815 63.0258 37.4608 63.7406 35.6656 63.7441Z" fill="white"/>
</g>
<defs>
<filter id="filter0_df_2_225" x="-10" y="-7" width="116" height="116" filterUnits="userSpaceOnUse" color-interpolation-filters="sRGB">
<feFlood flood-opacity="0" result="BackgroundImageFix"/>
<feColorMatrix in="SourceAlpha" type="matrix" values="0 0 0 0 0 0 0 0 0 0 0 0 0 0 0 0 0 0 127 0" result="hardAlpha"/>
<feOffset/>
<feGaussianBlur stdDeviation="12.5"/>
<feComposite in2="hardAlpha" operator="out"/>
<feColorMatrix type="matrix" values="0 0 0 0 1 0 0 0 0 1 0 0 0 0 1 0 0 0 1 0"/>
<feBlend mode="normal" in2="BackgroundImageFix" result="effect1_dropShadow_2_225"/>
<feBlend mode="normal" in="SourceGraphic" in2="effect1_dropShadow_2_225" result="shape"/>
<feGaussianBlur stdDeviation="0.5" result="effect2_foregroundBlur_2_225"/>
</filter>
</defs>
</svg>
