<svg width="84" height="102" viewBox="0 0 84 102" fill="none" xmlns="http://www.w3.org/2000/svg">
<g filter="url(#filter0_df_2_219)">
<path d="M58.225 76.6595H58.2244C58.0528 76.7894 57.8565 76.8828 57.6475 76.9339C57.4384 76.9851 57.2211 76.9929 57.009 76.957C56.7968 76.921 56.5942 76.842 56.4137 76.7248C56.2332 76.6076 56.0786 76.4547 55.9595 76.2755C51.3932 69.4965 48.7413 61.6106 48.2836 53.4499C48.2696 53.2108 48.1647 52.9861 47.9905 52.8218C47.8163 52.6575 47.5859 52.566 47.3465 52.5659H36.6495C36.41 52.566 36.1796 52.6575 36.0054 52.8218C35.8312 52.9862 35.7264 53.2108 35.7124 53.4499C35.2547 61.6106 32.6028 69.4965 28.0366 76.2755C27.9241 76.4476 27.7788 76.5959 27.6091 76.7118C27.4393 76.8278 27.2484 76.9091 27.0471 76.9513C26.8459 76.9935 26.6384 76.9956 26.4364 76.9575C26.2343 76.9194 26.0418 76.842 25.8697 76.7295C25.6976 76.617 25.5493 76.4718 25.4334 76.302C25.3174 76.1322 25.2361 75.9413 25.1939 75.7401C25.1518 75.5389 25.1496 75.3313 25.1877 75.1293C25.2258 74.9272 25.3032 74.7347 25.4157 74.5626C29.6228 68.3241 32.089 61.0759 32.5597 53.566C32.568 53.4378 32.55 53.3093 32.5066 53.1884C32.4633 53.0674 32.3956 52.9567 32.3078 52.8629C32.2199 52.7692 32.1138 52.6945 31.9959 52.6434C31.8781 52.5923 31.751 52.5659 31.6225 52.5659H27.7749C27.3599 52.5659 26.9618 52.401 26.6683 52.1075C26.3748 51.814 26.2099 51.416 26.2099 51.0009C26.2099 50.5858 26.3748 50.1878 26.6683 49.8943C26.9618 49.6008 27.3599 49.4359 27.7749 49.4359H31.6599C31.7869 49.4358 31.9125 49.41 32.0293 49.36C32.146 49.31 32.2513 49.2368 32.339 49.145C32.4266 49.0531 32.4948 48.9444 32.5392 48.8254C32.5837 48.7065 32.6035 48.5797 32.5976 48.4529C32.2803 40.9793 30.0031 33.7206 25.9947 27.4049C25.7793 27.0519 25.7123 26.6279 25.8085 26.2257C25.9047 25.8234 26.1562 25.4756 26.508 25.2582C26.8598 25.0407 27.2834 24.9714 27.6862 25.0653C28.089 25.1592 28.4382 25.4087 28.6576 25.7593C32.9987 32.5895 35.4503 40.449 35.7625 48.536C35.7728 48.778 35.8762 49.0067 36.051 49.1744C36.2258 49.342 36.4586 49.4357 36.7008 49.4359H47.2951C47.5374 49.4357 47.7702 49.342 47.945 49.1744C48.1199 49.0067 48.2232 48.778 48.2335 48.536C48.5457 40.449 50.9973 32.5895 55.3383 25.7592C55.4463 25.5842 55.5877 25.4321 55.7544 25.3117C55.9212 25.1912 56.1101 25.1049 56.3102 25.0575C56.5104 25.0101 56.7179 25.0027 56.9209 25.0356C57.124 25.0685 57.3186 25.141 57.4935 25.2492C57.6685 25.3573 57.8204 25.4989 57.9407 25.6658C58.0609 25.8327 58.147 26.0216 58.1942 26.2218C58.2414 26.422 58.2486 26.6296 58.2155 26.8326C58.1824 27.0356 58.1096 27.2301 58.0013 27.4049C53.9929 33.7206 51.7158 40.9793 51.3983 48.4529C51.3924 48.5797 51.4123 48.7065 51.4568 48.8254C51.5013 48.9444 51.5694 49.0531 51.657 49.1449C51.7447 49.2368 51.8501 49.31 51.9668 49.36C52.0835 49.41 52.2092 49.4358 52.3362 49.4359H56.2211C56.6361 49.4359 57.0342 49.6008 57.3277 49.8943C57.6212 50.1878 57.7861 50.5858 57.7861 51.0009C57.7861 51.416 57.6212 51.814 57.3277 52.1075C57.0342 52.401 56.6361 52.5659 56.2211 52.5659H52.3734C52.2449 52.5659 52.1178 52.5923 52 52.6434C51.8821 52.6945 51.776 52.7692 51.6882 52.8629C51.6003 52.9567 51.5326 53.0674 51.4893 53.1884C51.446 53.3093 51.4279 53.4378 51.4362 53.566C51.9069 61.0759 54.3731 68.324 58.5802 74.5626C58.7986 74.8918 58.8834 75.2918 58.8174 75.6813C58.7514 76.0708 58.5396 76.4205 58.225 76.6595Z" fill="white"/>
</g>
<defs>
<filter id="filter0_df_2_219" x="-16" y="-7" width="116" height="116" filterUnits="userSpaceOnUse" color-interpolation-filters="sRGB">
<feFlood flood-opacity="0" result="BackgroundImageFix"/>
<feColorMatrix in="SourceAlpha" type="matrix" values="0 0 0 0 0 0 0 0 0 0 0 0 0 0 0 0 0 0 127 0" result="hardAlpha"/>
<feOffset/>
<feGaussianBlur stdDeviation="12.5"/>
<feComposite in2="hardAlpha" operator="out"/>
<feColorMatrix type="matrix" values="0 0 0 0 1 0 0 0 0 1 0 0 0 0 1 0 0 0 1 0"/>
<feBlend mode="normal" in2="BackgroundImageFix" result="effect1_dropShadow_2_219"/>
<feBlend mode="normal" in="SourceGraphic" in2="effect1_dropShadow_2_219" result="shape"/>
<feGaussianBlur stdDeviation="0.5" result="effect2_foregroundBlur_2_219"/>
</filter>
</defs>
</svg>
