<svg width="118" height="90" viewBox="0 0 118 90" fill="none" xmlns="http://www.w3.org/2000/svg">
<g clip-path="url(#clip0_102_3)">
<g filter="url(#filter0_df_102_3)">
<path d="M38.3573 38.7048C38.0876 38.7047 37.8238 38.7847 37.5995 38.9345C37.3752 39.0844 37.2004 39.2974 37.0971 39.5467C36.9939 39.7959 36.9669 40.0702 37.0196 40.3347C37.0723 40.5993 37.2023 40.8423 37.3931 41.033L42.7442 46.3841C42.8202 46.4601 42.8805 46.5503 42.9216 46.6496C42.9628 46.7488 42.9839 46.8552 42.9839 46.9627C42.9839 47.0702 42.9628 47.1766 42.9216 47.2759C42.8805 47.3751 42.8202 47.4653 42.7442 47.5413L27.6711 62.6175C27.4238 62.847 27.2649 63.156 27.2222 63.4907C27.1796 63.8254 27.2559 64.1645 27.4378 64.4486C27.5526 64.611 27.7015 64.7464 27.874 64.8453C28.0466 64.9443 28.2386 65.0043 28.4368 65.0213C28.635 65.0383 28.8344 65.0118 29.0213 64.9437C29.2082 64.8757 29.378 64.7676 29.5187 64.6271L44.6738 49.4704C44.8302 49.3226 45.0372 49.2403 45.2524 49.2403C45.4676 49.2403 45.6746 49.3226 45.831 49.4704L51.1842 54.8242C51.4401 55.08 51.787 55.2236 52.1487 55.2236C52.5105 55.2235 52.8574 55.0798 53.1131 54.824C53.3689 54.5681 53.5125 54.2212 53.5125 53.8595C53.5124 53.4977 53.3687 53.1508 53.1129 52.8951L47.7596 47.5413C47.6836 47.4653 47.6233 47.3751 47.5822 47.2759C47.5411 47.1766 47.5199 47.0702 47.5199 46.9627C47.5199 46.8552 47.5411 46.7488 47.5822 46.6496C47.6233 46.5503 47.6836 46.4601 47.7596 46.3841L68.3383 25.8017C68.4527 25.6873 68.5984 25.6094 68.7571 25.5778C68.9158 25.5462 69.0803 25.5623 69.2298 25.6242C69.3793 25.686 69.5071 25.7908 69.5971 25.9253C69.687 26.0598 69.7351 26.218 69.7352 26.3798L69.7383 33.5434C69.726 33.8812 69.8325 34.2126 70.0392 34.48C70.246 34.7474 70.54 34.9339 70.87 35.0069C71.0665 35.041 71.2681 35.0317 71.4606 34.9796C71.6531 34.9276 71.8319 34.8341 71.9845 34.7057C72.137 34.5773 72.2597 34.4171 72.3438 34.2363C72.4279 34.0555 72.4715 33.8584 72.4715 33.659L72.4662 19.9461C72.4662 19.8932 72.4453 19.8424 72.4079 19.8048C72.3706 19.7673 72.3199 19.7461 72.2669 19.7458H58.6994C58.362 19.7332 58.0309 19.8394 57.7637 20.0459C57.4966 20.2524 57.3104 20.5461 57.2375 20.8758C57.2034 21.0721 57.2125 21.2735 57.2644 21.4658C57.3163 21.6582 57.4096 21.8369 57.5378 21.9893C57.666 22.1418 57.8261 22.2644 58.0067 22.3485C58.1873 22.4326 58.3841 22.4762 58.5833 22.4763H65.83C65.9919 22.4761 66.1502 22.524 66.2849 22.6139C66.4196 22.7038 66.5245 22.8316 66.5865 22.9812C66.6485 23.1308 66.6646 23.2954 66.633 23.4542C66.6013 23.613 66.5232 23.7588 66.4086 23.8732L45.8299 44.455C45.6736 44.6028 45.4665 44.6851 45.2514 44.6851C45.0362 44.6851 44.8292 44.6028 44.6728 44.455L39.3217 39.1039C39.1953 38.9769 39.045 38.8763 38.8794 38.8078C38.7139 38.7393 38.5365 38.7043 38.3573 38.7048Z" fill="white"/>
</g>
</g>
<g clip-path="url(#clip1_102_3)">
<g filter="url(#filter1_df_102_3)">
<path d="M85.7329 41.5197C83.5547 41.5197 81.5766 42.8909 80.2205 45.0393C79.3773 46.3743 78.7832 47.9606 78.4532 49.6661L76.6519 42.9779C76.5241 42.5052 76.0983 42.1752 75.6085 42.1709C75.1124 42.1667 74.676 42.4988 74.5461 42.9779L72.634 50.0809L70.722 42.9779C70.5942 42.5052 70.1684 42.1752 69.6786 42.1709C69.1825 42.1667 68.7461 42.4988 68.6162 42.9779L63.2612 62.8712C63.1824 63.1523 63.2165 63.4525 63.3613 63.7058C63.506 63.9614 63.7445 64.1466 64.0256 64.2211C64.3088 64.2978 64.609 64.2573 64.8602 64.1104C65.1115 63.9635 65.2946 63.7208 65.367 63.4376L69.6701 47.4536L71.5055 54.2736L69.1911 62.8712C69.1101 63.1523 69.1463 63.4525 69.2911 63.7058C69.4359 63.9592 69.6744 64.1466 69.9555 64.2211C70.2387 64.2978 70.5389 64.2573 70.7901 64.1104C71.0414 63.9635 71.2245 63.7208 71.2969 63.4375L72.6361 58.4658L73.9754 63.4375H73.9733C74.0457 63.7207 74.2266 63.9635 74.4779 64.1104C74.7313 64.2573 75.0315 64.2978 75.3125 64.2211C75.5957 64.1466 75.8342 63.9614 75.979 63.7058C76.1216 63.4525 76.1578 63.1523 76.0791 62.8712L73.7646 54.2736L75.6 47.4536L79.9031 63.4376C79.9734 63.7207 80.1565 63.9635 80.4078 64.1104C80.6611 64.2573 80.9613 64.2978 81.2424 64.2211C81.5234 64.1466 81.764 63.9614 81.9089 63.7058C82.0515 63.4525 82.0877 63.1523 82.0089 62.8712L81.9898 62.801C83.0906 63.725 84.3724 64.2595 85.7329 64.2595C87.9111 64.2595 89.8892 62.8883 91.2454 60.7399C91.405 60.4972 91.4583 60.1991 91.3965 59.9138C91.3348 59.6284 91.1602 59.3793 90.9132 59.2239C90.6662 59.0685 90.3681 59.0174 90.0828 59.0834C89.7996 59.1494 89.5548 59.3282 89.4015 59.5774C88.3241 61.285 86.9976 62.0792 85.7328 62.0792C84.468 62.0792 83.1415 61.2829 82.0641 59.5774C80.9867 57.8697 80.3309 55.4339 80.3309 52.8914C80.3309 50.347 80.9867 47.9133 82.0641 46.2054C83.1415 44.4978 84.468 43.7036 85.7328 43.7036C86.9976 43.7036 88.3241 44.4999 89.4015 46.2054V46.2033C89.5548 46.4524 89.7996 46.6291 90.0828 46.6951C90.3681 46.7611 90.6662 46.7122 90.9132 46.5567C91.1602 46.3992 91.3348 46.1522 91.3965 45.8669C91.4583 45.5816 91.405 45.2835 91.2454 45.0386C89.889 42.8903 87.911 41.519 85.7329 41.519L85.7329 41.5197Z" fill="white"/>
</g>
</g>
<defs>
<filter id="filter0_df_102_3" x="2.21069" y="-5.25519" width="95.2607" height="95.2815" filterUnits="userSpaceOnUse" color-interpolation-filters="sRGB">
<feFlood flood-opacity="0" result="BackgroundImageFix"/>
<feColorMatrix in="SourceAlpha" type="matrix" values="0 0 0 0 0 0 0 0 0 0 0 0 0 0 0 0 0 0 127 0" result="hardAlpha"/>
<feOffset/>
<feGaussianBlur stdDeviation="12.5"/>
<feComposite in2="hardAlpha" operator="out"/>
<feColorMatrix type="matrix" values="0 0 0 0 1 0 0 0 0 1 0 0 0 0 1 0 0 0 1 0"/>
<feBlend mode="normal" in2="BackgroundImageFix" result="effect1_dropShadow_102_3"/>
<feBlend mode="normal" in="SourceGraphic" in2="effect1_dropShadow_102_3" result="shape"/>
<feGaussianBlur stdDeviation="0.5" result="effect2_foregroundBlur_102_3"/>
</filter>
<filter id="filter1_df_102_3" x="38.2198" y="16.519" width="78.2017" height="72.7404" filterUnits="userSpaceOnUse" color-interpolation-filters="sRGB">
<feFlood flood-opacity="0" result="BackgroundImageFix"/>
<feColorMatrix in="SourceAlpha" type="matrix" values="0 0 0 0 0 0 0 0 0 0 0 0 0 0 0 0 0 0 127 0" result="hardAlpha"/>
<feOffset/>
<feGaussianBlur stdDeviation="12.5"/>
<feComposite in2="hardAlpha" operator="out"/>
<feColorMatrix type="matrix" values="0 0 0 0 1 0 0 0 0 1 0 0 0 0 1 0 0 0 1 0"/>
<feBlend mode="normal" in2="BackgroundImageFix" result="effect1_dropShadow_102_3"/>
<feBlend mode="normal" in="SourceGraphic" in2="effect1_dropShadow_102_3" result="shape"/>
<feGaussianBlur stdDeviation="0.5" result="effect2_foregroundBlur_102_3"/>
</filter>
<clipPath id="clip0_102_3">
<rect width="95" height="88" fill="white" transform="translate(0.0117188 0.996094)"/>
</clipPath>
<clipPath id="clip1_102_3">
<rect width="89" height="73" fill="white" transform="translate(28.9883 16.0039)"/>
</clipPath>
</defs>
</svg>
