<svg width="192" height="193" viewBox="0 0 192 193" fill="none" xmlns="http://www.w3.org/2000/svg">
<g filter="url(#filter0_di_643_32156)">
<path d="M5 5C11.6667 9.66667 25.6 20.4 28 26C29.7879 30.1717 33.8842 32.9227 38.7017 36.158C41.9679 38.3515 45.5656 40.7676 49 44C52.769 47.5472 54.8667 50.7013 56.8189 53.6365C59.2695 57.3209 61.4907 60.6604 66.5 64C70.1108 66.4072 72.9169 67.2853 75.2732 68.0226C78.7901 69.1231 81.3054 69.9102 84 75C87.4371 81.4923 92.0411 84.776 96.475 87.3018C96.8868 86.9974 97.3244 86.687 97.7902 86.3699C101.571 83.7958 103.05 83.0008 103.96 82.5119C105.156 81.869 105.368 81.7555 108.531 78.8219C111.493 76.0757 112.767 74.5652 114.208 72.8567C115.478 71.3523 116.876 69.6943 119.67 66.9041C123.151 63.4283 125.249 62.1397 126.928 61.1084C129.331 59.6323 130.877 58.6832 134.39 52.6027C138.443 45.5872 141.211 44.0699 143.941 42.5734C145.231 41.8668 146.512 41.1647 147.916 39.8904C149.314 38.6212 150.834 38.0414 152.618 37.3606C156.419 35.9105 161.42 34.0026 169 24C165.287 29.2968 156.747 40.3671 152.292 42.274C148.972 43.6945 146.784 46.9491 144.209 50.7767C142.464 53.3718 140.542 56.2302 137.97 58.9589C135.148 61.9534 132.638 63.6201 130.303 65.1712C127.371 67.1182 124.714 68.883 122.057 72.863C120.142 75.7319 119.443 77.9613 118.857 79.8335C117.981 82.6278 117.355 84.6262 113.305 86.7671C109.621 88.7146 107.236 91.1335 105.442 93.6387C106.419 95.0664 107.244 96.8883 108.454 99.5613C109.03 100.832 109.693 102.295 110.5 104C112.938 109.146 114.706 110.941 116.972 113.241C118.89 115.187 121.163 117.495 124.5 122.5C132.215 134.073 139.465 138.205 146.25 142.072C146.501 142.215 146.751 142.357 147 142.5C150.465 144.48 152.949 148.052 155.909 152.307C158.929 156.649 162.444 161.702 168 166.5C176.8 174.1 184.667 184.333 187.5 188.5C183.333 184.167 171.7 172.8 158.5 162C150.425 155.393 146.422 151.062 143.384 147.775C140.214 144.345 138.095 142.053 133.5 139.5C127.7 136.278 125.634 133.767 122.955 130.511C121.342 128.55 119.507 126.319 116.5 123.5C114.593 121.712 112.881 120.665 111.323 119.711C108.215 117.809 105.717 116.281 103.5 110C102.45 107.025 100.849 105.153 98.8895 103.504C97.6931 104.42 96.1572 105.114 93.7632 106.197C92.7521 106.654 91.5879 107.18 90.2316 107.822C86.1372 109.759 84.709 111.164 82.8788 112.964C81.3304 114.488 79.4943 116.294 75.5123 118.945C66.3047 125.075 63.0168 130.835 59.9399 136.226C59.8262 136.425 59.7128 136.624 59.5994 136.822C58.0243 139.575 55.1822 141.549 51.7967 143.9C48.3421 146.3 44.3216 149.093 40.5041 153.507C34.4572 160.499 14.3152 178.749 11 181C14.4478 177.689 35.4915 156.447 44.0845 145.959C49.3412 139.543 52.7875 136.362 55.4027 133.949C58.1313 131.43 59.9551 129.747 61.9864 126.096C64.55 121.488 66.548 119.846 69.1386 117.718C70.6987 116.436 72.4737 114.978 74.7166 112.589C76.4532 110.739 77.7657 109.738 79.035 108.769C80.8784 107.362 82.6305 106.025 85.4578 102.26C87.0951 100.08 88.0304 98.2274 88.9058 96.4933C89.0385 96.2306 89.1697 95.9706 89.3018 95.7126C88.0493 94.4068 86.7746 92.8695 85.5 91C81.2834 84.8156 80.2276 84.6369 78.9562 84.4217C77.9663 84.2542 76.8456 84.0645 74 81C70.5436 77.2777 68.6424 75.6762 66.4921 73.8647C64.5985 72.2697 62.5118 70.5118 59 67C54.6253 62.6253 53.0034 59.9884 51.7054 57.8779C49.8475 54.8573 48.653 52.9152 41 48.5C32.17 43.4058 30.2603 39.9263 28.3769 36.4948C27.4875 34.8742 26.6039 33.2643 25 31.5C23.4026 29.7428 22.6727 27.8325 21.8159 25.5898C19.9908 20.8127 17.5895 14.5272 5 5Z" fill="url(#paint0_radial_643_32156)"/>
<path d="M5 5C11.6667 9.66667 25.6 20.4 28 26C29.7879 30.1717 33.8842 32.9227 38.7017 36.158C41.9679 38.3515 45.5656 40.7676 49 44C52.769 47.5472 54.8667 50.7013 56.8189 53.6365C59.2695 57.3209 61.4907 60.6604 66.5 64C70.1108 66.4072 72.9169 67.2853 75.2732 68.0226C78.7901 69.1231 81.3054 69.9102 84 75C87.4371 81.4923 92.0411 84.776 96.475 87.3018C96.8868 86.9974 97.3244 86.687 97.7902 86.3699C101.571 83.7958 103.05 83.0008 103.96 82.5119C105.156 81.869 105.368 81.7555 108.531 78.8219C111.493 76.0757 112.767 74.5652 114.208 72.8567C115.478 71.3523 116.876 69.6943 119.67 66.9041C123.151 63.4283 125.249 62.1397 126.928 61.1084C129.331 59.6323 130.877 58.6832 134.39 52.6027C138.443 45.5872 141.211 44.0699 143.941 42.5734C145.231 41.8668 146.512 41.1647 147.916 39.8904C149.314 38.6212 150.834 38.0414 152.618 37.3606C156.419 35.9105 161.42 34.0026 169 24C165.287 29.2968 156.747 40.3671 152.292 42.274C148.972 43.6945 146.784 46.9491 144.209 50.7767C142.464 53.3718 140.542 56.2302 137.97 58.9589C135.148 61.9534 132.638 63.6201 130.303 65.1712C127.371 67.1182 124.714 68.883 122.057 72.863C120.142 75.7319 119.443 77.9613 118.857 79.8335C117.981 82.6278 117.355 84.6262 113.305 86.7671C109.621 88.7146 107.236 91.1335 105.442 93.6387C106.419 95.0664 107.244 96.8883 108.454 99.5613C109.03 100.832 109.693 102.295 110.5 104C112.938 109.146 114.706 110.941 116.972 113.241C118.89 115.187 121.163 117.495 124.5 122.5C132.215 134.073 139.465 138.205 146.25 142.072C146.501 142.215 146.751 142.357 147 142.5C150.465 144.48 152.949 148.052 155.909 152.307C158.929 156.649 162.444 161.702 168 166.5C176.8 174.1 184.667 184.333 187.5 188.5C183.333 184.167 171.7 172.8 158.5 162C150.425 155.393 146.422 151.062 143.384 147.775C140.214 144.345 138.095 142.053 133.5 139.5C127.7 136.278 125.634 133.767 122.955 130.511C121.342 128.55 119.507 126.319 116.5 123.5C114.593 121.712 112.881 120.665 111.323 119.711C108.215 117.809 105.717 116.281 103.5 110C102.45 107.025 100.849 105.153 98.8895 103.504C97.6931 104.42 96.1572 105.114 93.7632 106.197C92.7521 106.654 91.5879 107.18 90.2316 107.822C86.1372 109.759 84.709 111.164 82.8788 112.964C81.3304 114.488 79.4943 116.294 75.5123 118.945C66.3047 125.075 63.0168 130.835 59.9399 136.226C59.8262 136.425 59.7128 136.624 59.5994 136.822C58.0243 139.575 55.1822 141.549 51.7967 143.9C48.3421 146.3 44.3216 149.093 40.5041 153.507C34.4572 160.499 14.3152 178.749 11 181C14.4478 177.689 35.4915 156.447 44.0845 145.959C49.3412 139.543 52.7875 136.362 55.4027 133.949C58.1313 131.43 59.9551 129.747 61.9864 126.096C64.55 121.488 66.548 119.846 69.1386 117.718C70.6987 116.436 72.4737 114.978 74.7166 112.589C76.4532 110.739 77.7657 109.738 79.035 108.769C80.8784 107.362 82.6305 106.025 85.4578 102.26C87.0951 100.08 88.0304 98.2274 88.9058 96.4933C89.0385 96.2306 89.1697 95.9706 89.3018 95.7126C88.0493 94.4068 86.7746 92.8695 85.5 91C81.2834 84.8156 80.2276 84.6369 78.9562 84.4217C77.9663 84.2542 76.8456 84.0645 74 81C70.5436 77.2777 68.6424 75.6762 66.4921 73.8647C64.5985 72.2697 62.5118 70.5118 59 67C54.6253 62.6253 53.0034 59.9884 51.7054 57.8779C49.8475 54.8573 48.653 52.9152 41 48.5C32.17 43.4058 30.2603 39.9263 28.3769 36.4948C27.4875 34.8742 26.6039 33.2643 25 31.5C23.4026 29.7428 22.6727 27.8325 21.8159 25.5898C19.9908 20.8127 17.5895 14.5272 5 5Z" stroke="#600000" stroke-width="0.25"/>
</g>
<defs>
<filter id="filter0_di_643_32156" x="0.923828" y="0.897461" width="190.68" height="191.689" filterUnits="userSpaceOnUse" color-interpolation-filters="sRGB">
<feFlood flood-opacity="0" result="BackgroundImageFix"/>
<feColorMatrix in="SourceAlpha" type="matrix" values="0 0 0 0 0 0 0 0 0 0 0 0 0 0 0 0 0 0 127 0" result="hardAlpha"/>
<feOffset/>
<feGaussianBlur stdDeviation="2"/>
<feComposite in2="hardAlpha" operator="out"/>
<feColorMatrix type="matrix" values="0 0 0 0 0 0 0 0 0 0 0 0 0 0 0 0 0 0 0.25 0"/>
<feBlend mode="normal" in2="BackgroundImageFix" result="effect1_dropShadow_643_32156"/>
<feBlend mode="normal" in="SourceGraphic" in2="effect1_dropShadow_643_32156" result="shape"/>
<feColorMatrix in="SourceAlpha" type="matrix" values="0 0 0 0 0 0 0 0 0 0 0 0 0 0 0 0 0 0 127 0" result="hardAlpha"/>
<feOffset/>
<feGaussianBlur stdDeviation="2"/>
<feComposite in2="hardAlpha" operator="arithmetic" k2="-1" k3="1"/>
<feColorMatrix type="matrix" values="0 0 0 0 0 0 0 0 0 0 0 0 0 0 0 0 0 0 0.25 0"/>
<feBlend mode="normal" in2="shape" result="effect2_innerShadow_643_32156"/>
</filter>
<radialGradient id="paint0_radial_643_32156" cx="0" cy="0" r="1" gradientUnits="userSpaceOnUse" gradientTransform="translate(96 96.5) rotate(-180) scale(73 72.5)">
<stop stop-color="#D61016"/>
<stop offset="1" stop-color="#880504"/>
</radialGradient>
</defs>
</svg>
