<svg width="481" height="142" viewBox="0 0 481 142" fill="none" xmlns="http://www.w3.org/2000/svg">
<path d="M35.175 140.323C34.796 139.952 34.4861 113.11 34.4861 80.686V21.7245L19.1876 14.5835C7.9358 9.34354 3.8891 7.0372 4.1852 5.90815C4.45366 4.5475 8.78461 4.34484 43.5665 4.12289L82.6517 3.87103L92.2355 15.451L92.499 11.8323C92.6441 9.84438 92.9866 7.22924 93.2619 6.02299L93.7614 3.84208L156.337 4.3516L159.476 12.6699L170.432 3.83051L213.563 4.3516L214.866 8.2116C215.581 10.3346 216.495 14.4648 216.899 17.3791L217.631 22.6866L230.264 3.8691H370.418L376.015 8.32741C379.134 10.8171 381.976 12.419 382.44 11.9462C382.897 11.4839 383.664 9.5819 384.148 7.7291L385.028 4.3516H431.318C471.884 4.3516 477.707 4.53206 477.905 5.8184C478.105 6.83165 474.302 9.16695 465.469 13.4612C458.451 16.858 451.749 20.3417 450.565 21.2005L448.453 22.7542L448.502 80.3647C448.535 119.254 448.217 138.168 447.524 138.554C446.96 138.895 434.299 131.761 419.296 122.728C404.294 113.667 391.66 106.227 391.068 106.227C390.382 106.227 390.23 108.166 390.626 111.872C391.672 121.715 391.612 121.715 371.478 115.606C357.364 111.312 354.008 109.971 353.12 108.118C352.221 106.381 349.823 105.233 342.756 103.158C337.703 101.672 333.163 100.446 332.689 100.446C332.19 100.439 332.048 104.142 332.366 108.938C332.676 113.619 332.546 118.048 332.077 118.781C331.38 119.881 325.504 118.405 300.098 110.733C282.924 105.561 268.317 101.093 267.527 100.794C266.613 100.451 262.474 104.548 255.585 112.663C249.761 119.466 244.431 125.208 243.839 125.305C243.186 125.459 236.693 120.152 229.429 113.532C221.79 106.564 215.315 101.469 214.229 101.469C213.144 101.454 206.59 102.608 199.622 104.026C189.357 106.14 186.988 106.921 186.988 108.292C186.988 109.614 183.346 111.158 170.11 115.471C158.859 119.129 152.937 120.644 152.246 120.007C151.703 119.476 151.012 115.51 150.706 111.196C150.243 104.596 149.904 103.418 148.574 103.795C147.702 104.043 135.348 107.78 121.037 112.094C106.725 116.407 94.3877 119.688 93.4994 119.37C92.2361 118.897 92.0979 117.71 92.6605 112.538C93.1135 108.398 92.9961 106.275 92.315 106.275C91.7475 106.275 79.1879 113.927 64.3829 123.259C35.3651 141.594 35.7599 141.401 34.6742 140.339L35.175 140.323Z" fill="white"/>
<path d="M38.136 77.791V19.0225L8.03247 4.5475L83.0445 4.38248L96.8625 20.305L97.4359 4.38248H156.459L158.067 9.78648C159.528 14.708 159.824 15.065 161.344 13.8105C162.263 13.052 165.263 10.6164 168.016 8.40653L173.011 4.38248H213.576L215.185 9.99878C216.07 13.0868 216.804 18.6259 216.823 22.3508L216.849 29.0382L233.036 4.43073L371.216 4.4071L385.725 15.7941L388.498 4.4071L477.526 4.45177L448.409 19.4093L448.401 27.7855C448.397 32.3982 447.96 37.2811 447.431 38.5935C446.805 40.205 446.805 41.0735 447.431 41.0735C448.043 41.0735 448.393 58.154 448.393 87.876C448.393 113.642 448.18 134.679 447.919 134.679C447.657 134.679 434.594 126.891 418.802 117.405L390.179 100.132V117.116L373.598 112.03C359.582 107.726 357.016 106.636 356.72 104.918C356.546 103.808 356.271 102.891 356.107 102.891C355.943 102.891 350.757 101.376 344.559 99.5139C338.38 97.6611 332.913 96.1364 332.32 96.1364C331.705 96.1335 331.45 99.9192 331.642 106.172L331.951 116.208L316.357 111.49C307.77 108.894 293.754 104.696 285.266 102.168C272.929 98.5007 269.671 97.1979 269.474 95.7504C269.263 94.4477 265.783 97.9313 257.137 108.006L245.095 122.095L230.981 109.164C223.085 101.965 216.373 96.5224 215.88 97.0049C215.337 97.3996 208.586 98.9253 200.878 100.392C188.639 102.737 186.862 103.306 186.566 105.034C186.319 106.665 183.536 107.9 170.675 112.078L155.081 117.154V108.064C155.081 103.065 154.734 98.9735 154.312 98.9735C153.721 98.9735 108.811 112.387 98.349 115.668C96.4638 116.263 96.3849 115.922 96.6908 108.054L97.0116 99.8227L90.2803 104.049C86.579 106.375 73.4026 114.664 61.0651 122.384C48.7276 130.172 38.3641 136.57 38.1667 136.57C37.9693 136.57 37.7215 110.129 37.7215 77.8014L38.136 77.791ZM71.694 102.013L95.8755 87.827L96.4065 44.8845H84.5625L88.0071 39.6252C91.0569 34.9643 91.4517 33.6326 91.4517 27.9487V21.4929L80.3973 9.2374L30.7512 9.35031L45.2601 14.6964L45.2838 65.5519C45.3008 101.932 45.6155 116.311 46.3991 116.311C46.9973 116.269 58.3418 109.855 71.6663 102.029L71.694 102.013ZM66.759 69.5885V51.736H74.655V83.581L71.4472 85.4917C69.6805 86.5435 67.9039 87.4024 67.4992 87.4121C67.0926 87.414 66.759 79.3833 66.759 69.5596V69.5885ZM66.759 32.436V26.646H74.655V38.226H66.759V32.436ZM443.793 80.686V44.981H433.824L443.793 33.6905V15.1625L459.091 9.3339L423.066 9.21328V31.0223L415.17 38.5589V9.22292H393.456V87.0984L403.523 93.2744C409.041 96.6712 413.887 99.5952 414.38 99.7785C414.83 99.9551 415.199 89.646 415.199 76.8115V53.555L417.419 53.6229C422.759 53.7859 422.69 53.4916 422.641 74.6599C422.618 85.4679 422.821 96.7584 423.093 99.6534L423.586 104.961L433.456 110.539C438.885 113.607 443.425 116.155 443.524 116.203C443.66 116.254 443.77 100.184 443.77 80.5946L443.793 80.686ZM180.264 77.5884L180.531 59.8323L187.894 52.8072V72.1072C187.894 93.3372 187.504 92.1792 194.31 90.4422C196.205 89.9529 200.321 89.0526 203.44 88.4446L209.115 87.3445V9.27599H174.373L159.765 20.9525V46.911H170.03L159.864 57.0435L159.206 102.591L179.933 95.3733L180.264 77.5884ZM180.49 32.3298V26.4723L187.892 27.1767L188.126 38.1777H180.487L180.49 32.3298ZM270.307 57.7093L270.337 38.2163H240.727V26.4433L258.493 27.281L270.337 9.23547H235.891L220.099 32.299V51.6955H251.683V62.407C251.683 72.9255 251.622 73.215 248.662 76.882L245.642 80.6165L233.107 69.905C218.697 57.553 219.388 57.36 220.572 73.6203L221.251 82.5176L245.235 103.072L270.304 77.3066L270.307 57.7093ZM328.54 82.0274C328.54 70.6403 328.354 61.2798 328.127 61.2798C327.9 61.2798 326.538 64.7249 325.107 68.942C323.479 73.738 322.057 76.44 321.327 76.1601C320.682 75.9141 315.494 73.8635 309.779 71.5957L299.416 67.4848L298.842 51.6588H313.45L316.046 45.8012C317.477 42.5781 318.641 39.5384 318.641 39.0462C318.641 38.5473 314.229 38.1449 308.771 38.1449H298.901V26.7579H308.327C313.509 26.7579 317.891 26.5997 318.059 26.4057C318.935 25.4021 327.514 10.2902 327.514 9.80772C327.514 9.46225 316.46 9.17853 302.938 9.17853H278.362L278.023 14.7273C277.838 17.7767 277.685 34.9923 277.685 52.9413V85.6548L301.866 94.1468C315.191 98.8174 326.64 102.677 327.331 102.726C328.282 102.793 328.565 98.0647 328.565 82.0746L328.54 82.0274ZM386.773 79.8272V57.8251L375.817 47.3066L386.279 46.3416L386.831 21.9271L370.644 9.18914H335.409V84.1697L345.032 87.3831C350.322 89.149 355.198 90.7896 355.889 91.0212C356.849 91.355 357.123 87.2094 357.123 72.3001V53.1932L365.019 60.7298V93.8293L374.642 97.7762C379.932 99.9474 384.808 101.742 385.499 101.762C386.45 101.787 386.733 96.7726 386.733 79.7596L386.773 79.8272ZM357.163 32.3491V26.617L365.059 26.7232V38.1102H357.163V32.3491ZM128.179 92.7582L152.36 85.7523V8.64875L126.896 8.59568C112.88 8.56654 101.431 8.61691 101.431 8.70762C101.431 8.79842 103.79 12.944 106.662 17.933L111.893 26.9847L130.943 27.5357L130.556 38.0542L119.896 38.0546C114.063 38.0548 109.236 38.3807 109.236 38.7783C109.23 39.1759 110.451 42.2041 111.951 45.5044L114.675 51.5067L130.467 51.5586V67.3846L107.47 76.3012L104.765 66.8442C103.275 61.6428 101.893 57.3872 101.686 57.3872C101.479 57.3872 101.313 66.9407 101.313 78.6172C101.313 94.9257 101.596 99.8472 102.547 99.8472C103.226 99.8332 114.687 96.6723 128.011 92.822L128.179 92.7582Z" fill="#020000"/>
</svg>
