<svg width="102" height="78" viewBox="0 0 102 78" fill="none" xmlns="http://www.w3.org/2000/svg">
<g filter="url(#filter0_df_2_209)">
<path d="M25.4787 35.007C25.1856 34.7134 25.0209 34.3155 25.0209 33.9006C25.0209 33.4857 25.1856 33.0877 25.4787 32.7942L32.8624 25.4099C32.8843 25.3787 32.9134 25.3533 32.9473 25.3358C32.9811 25.3182 33.0186 25.3091 33.0567 25.3091C33.0948 25.3091 33.1324 25.3182 33.1662 25.3358C33.2001 25.3533 33.2292 25.3787 33.2511 25.4099L41.3676 33.5265C41.5472 33.6961 41.7848 33.7905 42.0318 33.7905C42.2788 33.7905 42.5164 33.6961 42.6959 33.5265L50.802 25.4087C50.824 25.3778 50.8531 25.3526 50.8868 25.3352C50.9205 25.3178 50.9579 25.3088 50.9958 25.3088C51.0338 25.3088 51.0711 25.3178 51.1048 25.3352C51.1386 25.3526 51.1676 25.3778 51.1896 25.4087L59.3073 33.5265C59.4868 33.6961 59.7245 33.7905 59.9714 33.7905C60.2184 33.7905 60.4561 33.6961 60.6356 33.5265L68.7411 25.4099C68.7622 25.3778 68.791 25.3513 68.8248 25.333C68.8586 25.3147 68.8964 25.3051 68.9349 25.3049C68.9733 25.3048 69.0112 25.3142 69.0451 25.3323C69.0791 25.3504 69.108 25.3767 69.1293 25.4087L76.5214 32.8015C76.6667 32.9468 76.7819 33.1193 76.8605 33.3091C76.9392 33.4989 76.9796 33.7024 76.9796 33.9079C76.9796 34.1133 76.9392 34.3168 76.8605 34.5066C76.7819 34.6965 76.6666 34.869 76.5213 35.0143C76.376 35.1595 76.2036 35.2748 76.0137 35.3534C75.8239 35.4321 75.6204 35.4725 75.4149 35.4725C75.2095 35.4725 75.006 35.432 74.8162 35.3534C74.6263 35.2748 74.4538 35.1595 74.3086 35.0142L69.6012 30.3075C69.4251 30.1314 69.1863 30.0325 68.9372 30.0324H68.9367C68.6877 30.0325 68.4489 30.1314 68.2728 30.3075L60.1594 38.4326C60.1098 38.4816 60.0429 38.5091 59.9732 38.5091C59.9035 38.5091 59.8367 38.4816 59.7871 38.4326L51.6614 30.3075C51.4853 30.1314 51.2466 30.0325 50.9976 30.0324H50.997C50.748 30.0325 50.5093 30.1314 50.3332 30.3075L42.2197 38.4326C42.1702 38.4816 42.1033 38.5091 42.0336 38.5091C41.9639 38.5091 41.897 38.4816 41.8474 38.4326L33.7205 30.3062C33.6334 30.219 33.5299 30.1499 33.416 30.1027C33.3021 30.0555 33.18 30.0312 33.0567 30.0312C32.9334 30.0312 32.8113 30.0555 32.6974 30.1027C32.5835 30.1499 32.48 30.219 32.3929 30.3062L27.6916 35.007C27.3974 35.2992 26.9997 35.4631 26.5851 35.4631C26.1706 35.4631 25.7728 35.2992 25.4787 35.007ZM69.106 39.5793C69.0839 39.5567 69.0575 39.5388 69.0283 39.5266C68.9991 39.5144 68.9678 39.5082 68.9361 39.5084C68.9042 39.5081 68.8726 39.5143 68.843 39.5264C68.8135 39.5386 68.7868 39.5566 68.7644 39.5793L60.6356 47.7203C60.4595 47.8963 60.2208 47.9953 59.9718 47.9953H59.9711C59.7221 47.9953 59.4834 47.8963 59.3073 47.7203L51.1664 39.5793C51.1443 39.5567 51.1178 39.5387 51.0886 39.5266C51.0594 39.5144 51.0281 39.5082 50.9965 39.5084C50.9645 39.5081 50.9329 39.5143 50.9033 39.5264C50.8738 39.5386 50.847 39.5566 50.8246 39.5793L42.6959 47.7203C42.5198 47.8963 42.281 47.9953 42.032 47.9953H42.0314C41.7825 47.9952 41.5437 47.8963 41.3676 47.7203L33.2273 39.5793C33.1791 39.5402 33.1188 39.5188 33.0567 39.5188C32.9946 39.5188 32.9344 39.5402 32.8862 39.5793L25.4787 46.9868C25.1851 47.2802 25.0201 47.6782 25.02 48.0933C25.0199 48.5084 25.1847 48.9066 25.4781 49.2002C25.7716 49.4938 26.1696 49.6588 26.5847 49.6589C26.9998 49.659 27.398 49.4942 27.6916 49.2008L32.3929 44.5C32.48 44.4129 32.5835 44.3437 32.6974 44.2965C32.8113 44.2493 32.9334 44.225 33.0567 44.225C33.18 44.225 33.3021 44.2493 33.416 44.2965C33.5299 44.3437 33.6334 44.4129 33.7205 44.5L41.8353 52.6141C41.8881 52.6662 41.9593 52.6953 42.0335 52.6951C42.1077 52.6949 42.1788 52.6653 42.2313 52.6129L50.3332 44.5013C50.4204 44.4141 50.5239 44.3449 50.6379 44.2977C50.7518 44.2505 50.874 44.2262 50.9973 44.2262C51.1206 44.2262 51.2428 44.2505 51.3567 44.2977C51.4707 44.3449 51.5742 44.4141 51.6614 44.5013L59.7743 52.6141C59.8273 52.6662 59.8986 52.6953 59.9729 52.6951C60.0472 52.6949 60.1184 52.6653 60.171 52.6129L68.2729 44.5013C68.449 44.3252 68.6877 44.2263 68.9367 44.2262H68.9373C69.1863 44.2263 69.4251 44.3252 69.6012 44.5013L74.3086 49.2081C74.6022 49.5015 75.0003 49.6663 75.4154 49.6662C75.8306 49.6661 76.2286 49.5011 76.522 49.2075C76.8155 48.9139 76.9803 48.5157 76.9802 48.1006C76.98 47.6855 76.815 47.2875 76.5214 46.994L69.106 39.5793Z" fill="white"/>
</g>
<defs>
<filter id="filter0_df_2_209" x="-7" y="-19" width="116" height="116" filterUnits="userSpaceOnUse" color-interpolation-filters="sRGB">
<feFlood flood-opacity="0" result="BackgroundImageFix"/>
<feColorMatrix in="SourceAlpha" type="matrix" values="0 0 0 0 0 0 0 0 0 0 0 0 0 0 0 0 0 0 127 0" result="hardAlpha"/>
<feOffset/>
<feGaussianBlur stdDeviation="12.5"/>
<feComposite in2="hardAlpha" operator="out"/>
<feColorMatrix type="matrix" values="0 0 0 0 1 0 0 0 0 1 0 0 0 0 1 0 0 0 1 0"/>
<feBlend mode="normal" in2="BackgroundImageFix" result="effect1_dropShadow_2_209"/>
<feBlend mode="normal" in="SourceGraphic" in2="effect1_dropShadow_2_209" result="shape"/>
<feGaussianBlur stdDeviation="0.5" result="effect2_foregroundBlur_2_209"/>
</filter>
</defs>
</svg>
