<svg width="102" height="102" viewBox="0 0 102 102" fill="none" xmlns="http://www.w3.org/2000/svg">
<g filter="url(#filter0_df_102_2)">
<path d="M47.3628 35.8345C48.3913 35.832 49.3788 36.2381 50.1081 36.9634C50.8373 37.6888 51.2487 38.6741 51.2517 39.7026V58.5436C51.2544 60.9641 52.2172 63.2847 53.9287 64.9962C55.6403 66.7078 57.9608 67.6705 60.3813 67.6732H68.8045C68.99 67.6733 69.1714 67.7284 69.3256 67.8315C69.4798 67.9346 69.6 68.0811 69.671 68.2525C69.742 68.4239 69.7607 68.6125 69.7246 68.7944C69.6885 68.9764 69.5992 69.1436 69.4682 69.2749L64.4512 74.298C64.1581 74.5923 63.9937 74.9908 63.9939 75.4061C63.9941 75.8215 64.159 76.2198 64.4524 76.5138C64.7512 76.7985 65.1481 76.9574 65.5609 76.9574C65.9737 76.9574 66.3706 76.7985 66.6694 76.5138L76.9026 66.2707C76.9454 66.2278 76.9695 66.1697 76.9695 66.1091C76.9695 66.0485 76.9454 65.9903 76.9026 65.9475L66.6902 55.7345C66.3965 55.4408 65.9982 55.2758 65.5829 55.2758C65.1676 55.2758 64.7693 55.4408 64.4756 55.7345C64.182 56.0281 64.017 56.4264 64.017 56.8417C64.017 57.2571 64.182 57.6554 64.4756 57.949L69.4682 62.9422C69.5996 63.0734 69.6892 63.2406 69.7255 63.4227C69.7618 63.6049 69.7433 63.7937 69.6722 63.9652C69.6011 64.1368 69.4808 64.2834 69.3263 64.3865C69.1718 64.4897 68.9902 64.5446 68.8045 64.5444H60.3374C58.7579 64.5427 57.2437 63.9145 56.1269 62.7976C55.0101 61.6807 54.3821 60.1664 54.3805 58.587V40.0284C54.3736 39.041 54.1722 38.0647 53.7878 37.1552C53.4034 36.2457 52.8435 35.4209 52.1403 34.7278C50.8825 33.4491 49.1685 32.7223 47.375 32.707C47.3506 32.707 47.3261 32.707 47.3029 32.7076C45.5397 32.721 43.8488 33.4107 42.5792 34.6343C42.4044 34.8031 42.1708 34.8974 41.9278 34.8974C41.6848 34.8974 41.4513 34.8031 41.2764 34.6343C40.3022 33.7173 39.087 33.0968 37.773 32.8453C36.459 32.5938 35.1005 32.7217 33.8566 33.2142C33.7203 33.2694 33.5729 33.2917 33.4263 33.2795C33.2798 33.2672 33.1381 33.2207 33.0129 33.1436C32.8876 33.0665 32.7822 32.9611 32.7052 32.8357C32.6282 32.7104 32.5818 32.5688 32.5697 32.4222C32.4319 30.8086 31.8399 29.2671 30.8622 27.976C29.8846 26.6849 28.5612 25.6972 27.0455 25.1271C26.8107 25.0452 26.5595 25.0224 26.3138 25.0606C26.0682 25.0987 25.8357 25.1967 25.6368 25.3459C25.4379 25.4951 25.2788 25.6909 25.1734 25.916C25.0681 26.1412 25.0197 26.3888 25.0325 26.6371C25.0431 26.9671 25.1524 27.2864 25.3463 27.5538C25.5402 27.8211 25.8098 28.0241 26.1203 28.1367C27.1117 28.5381 27.9601 29.2274 28.5559 30.1157C29.1517 31.004 29.4677 32.0504 29.4629 33.12V61.8068C29.4535 62.2145 29.5959 62.6111 29.8623 62.9198C30.1288 63.2285 30.5004 63.4272 30.9051 63.4775C31.1203 63.4944 31.3366 63.4667 31.5406 63.3959C31.7445 63.3251 31.9316 63.2129 32.09 63.0663C32.2485 62.9197 32.3748 62.7419 32.4612 62.544C32.5475 62.3462 32.5919 62.1326 32.5917 61.9168V39.8737C32.5774 38.8903 32.9266 37.9363 33.5723 37.1944C34.218 36.4525 35.1148 35.975 36.0907 35.8534C36.6272 35.7995 37.169 35.8594 37.6807 36.0292C38.1925 36.1989 38.6627 36.4747 39.0606 36.8385C39.4589 37.2018 39.777 37.6442 39.9948 38.1373C40.2126 38.6305 40.3252 39.1636 40.3256 39.7026V61.9168C40.3321 62.334 40.5024 62.732 40.7998 63.0248C41.0971 63.3175 41.4977 63.4816 41.915 63.4816C42.3323 63.4816 42.7328 63.3175 43.0302 63.0248C43.3276 62.732 43.4979 62.334 43.5044 61.9168V39.878C43.4932 38.8999 43.8394 37.9513 44.4781 37.2104C45.1167 36.4695 46.0039 35.9871 46.9729 35.854C47.1025 35.8408 47.2326 35.8343 47.3628 35.8345Z" fill="white"/>
</g>
<defs>
<filter id="filter0_df_102_2" x="-7" y="-7" width="116" height="116" filterUnits="userSpaceOnUse" color-interpolation-filters="sRGB">
<feFlood flood-opacity="0" result="BackgroundImageFix"/>
<feColorMatrix in="SourceAlpha" type="matrix" values="0 0 0 0 0 0 0 0 0 0 0 0 0 0 0 0 0 0 127 0" result="hardAlpha"/>
<feOffset/>
<feGaussianBlur stdDeviation="12.5"/>
<feComposite in2="hardAlpha" operator="out"/>
<feColorMatrix type="matrix" values="0 0 0 0 1 0 0 0 0 1 0 0 0 0 1 0 0 0 1 0"/>
<feBlend mode="normal" in2="BackgroundImageFix" result="effect1_dropShadow_102_2"/>
<feBlend mode="normal" in="SourceGraphic" in2="effect1_dropShadow_102_2" result="shape"/>
<feGaussianBlur stdDeviation="0.5" result="effect2_foregroundBlur_102_2"/>
</filter>
</defs>
</svg>
