<svg width="102" height="92" viewBox="0 0 102 92" fill="none" xmlns="http://www.w3.org/2000/svg">
<g filter="url(#filter0_df_2_255)">
<path d="M76.9806 64.466C76.9803 64.8809 76.8152 65.2788 76.5218 65.5722C76.2284 65.8656 75.8306 66.0306 75.4156 66.031H26.5873C26.3814 66.0316 26.1774 65.9915 25.9871 65.9131C25.7967 65.8347 25.6236 65.7195 25.4779 65.5742C25.3321 65.4288 25.2164 65.2561 25.1375 65.0659C25.0586 64.8757 25.0179 64.6719 25.0179 64.466C25.0179 64.2601 25.0586 64.0563 25.1375 63.8661C25.2164 63.6759 25.3321 63.5032 25.4779 63.3578C25.6236 63.2125 25.7967 63.0973 25.9871 63.0189C26.1774 62.9405 26.3814 62.9004 26.5873 62.901H75.4156C75.8306 62.9014 76.2284 63.0664 76.5218 63.3598C76.8152 63.6532 76.9803 64.051 76.9806 64.466ZM26.5873 56.015H43.4895C43.9045 56.015 44.3026 55.8501 44.5961 55.5566C44.8896 55.2631 45.0545 54.865 45.0545 54.4499C45.0545 54.0349 44.8896 53.6368 44.5961 53.3433C44.3026 53.0498 43.9045 52.8849 43.4895 52.8849H41.7618C41.6367 52.885 41.5129 52.86 41.3976 52.8115C41.2824 52.763 41.1779 52.692 41.0905 52.6025C39.1882 50.6527 37.9032 48.1851 37.3965 45.5086C36.8898 42.832 37.1838 40.0655 38.2417 37.5552C39.2997 35.045 41.0745 32.9025 43.3442 31.3961C45.6138 29.8897 48.2774 29.0862 51.0015 29.0862C53.7255 29.0862 56.3891 29.8897 58.6588 31.3961C60.9284 32.9025 62.7033 35.045 63.7612 37.5552C64.8192 40.0655 65.1132 42.832 64.6064 45.5086C64.0997 48.1851 62.8147 50.6527 60.9124 52.6025C60.825 52.692 60.7206 52.763 60.6053 52.8115C60.49 52.86 60.3662 52.885 60.2411 52.8849H58.5135C58.0984 52.8849 57.7004 53.0498 57.4069 53.3433C57.1134 53.6368 56.9485 54.0349 56.9485 54.4499C56.9485 54.865 57.1134 55.2631 57.4069 55.5566C57.7004 55.8501 58.0984 56.015 58.5135 56.015H75.4157C75.6318 56.0154 75.8456 55.9709 76.0437 55.8845C76.2417 55.7981 76.4198 55.6716 76.5665 55.5129C76.7132 55.3543 76.8254 55.1669 76.8961 54.9627C76.9667 54.7585 76.9943 54.5418 76.977 54.3264C76.9264 53.9218 76.7275 53.5504 76.4187 53.284C76.1099 53.0177 75.7133 52.8755 75.3056 52.8849H66.4889C66.3237 52.8848 66.1613 52.8411 66.0183 52.7582C65.8754 52.6753 65.7568 52.5562 65.6746 52.4128C65.5923 52.2695 65.5494 52.107 65.55 51.9417C65.5507 51.7764 65.595 51.6142 65.6783 51.4715C67.1987 48.8665 67.9929 45.9016 67.9782 42.8854C67.9206 38.5563 66.2283 34.4091 63.2406 31.2756C60.253 28.1422 56.191 26.2543 51.8696 25.9906C48.8165 25.8366 45.7784 26.5093 43.0757 27.9376C40.3729 29.366 38.1057 31.4971 36.5129 34.1064C34.9202 36.7156 34.061 39.7063 34.0259 42.7631C33.9908 45.8199 34.7812 48.8295 36.3136 51.4746C36.3966 51.6172 36.4405 51.7793 36.4409 51.9443C36.4413 52.1094 36.3982 52.2716 36.3158 52.4147C36.2335 52.5577 36.1148 52.6765 35.9719 52.7591C35.829 52.8416 35.6668 52.885 35.5018 52.8849H26.5873C26.1736 52.8894 25.7781 53.0557 25.4856 53.3483C25.1931 53.6408 25.0268 54.0363 25.0223 54.45C25.0227 54.8649 25.1877 55.2628 25.4811 55.5562C25.7745 55.8496 26.1724 56.0146 26.5873 56.015Z" fill="white"/>
</g>
<defs>
<filter id="filter0_df_2_255" x="-7" y="-12" width="116" height="116" filterUnits="userSpaceOnUse" color-interpolation-filters="sRGB">
<feFlood flood-opacity="0" result="BackgroundImageFix"/>
<feColorMatrix in="SourceAlpha" type="matrix" values="0 0 0 0 0 0 0 0 0 0 0 0 0 0 0 0 0 0 127 0" result="hardAlpha"/>
<feOffset/>
<feGaussianBlur stdDeviation="12.5"/>
<feComposite in2="hardAlpha" operator="out"/>
<feColorMatrix type="matrix" values="0 0 0 0 1 0 0 0 0 1 0 0 0 0 1 0 0 0 1 0"/>
<feBlend mode="normal" in2="BackgroundImageFix" result="effect1_dropShadow_2_255"/>
<feBlend mode="normal" in="SourceGraphic" in2="effect1_dropShadow_2_255" result="shape"/>
<feGaussianBlur stdDeviation="0.5" result="effect2_foregroundBlur_2_255"/>
</filter>
</defs>
</svg>
