<svg width="94" height="102" viewBox="0 0 94 102" fill="none" xmlns="http://www.w3.org/2000/svg">
<g filter="url(#filter0_df_2_228)">
<path d="M43.2686 28.1516C43.5266 28.1515 43.7846 28.1646 44.0413 28.1907C45.9826 28.4444 47.7634 29.4015 49.0461 30.8806C50.3288 32.3597 51.0243 34.258 51.0007 36.2157L51.0117 63.5999C51.0322 65.1605 50.7853 66.7131 50.2818 68.1903C49.6812 69.5048 48.822 70.6849 47.7556 71.6602C46.6891 72.6355 45.4371 73.3861 44.0743 73.8672C43.7378 73.9593 43.4398 74.1573 43.2245 74.4319C43.0091 74.7065 42.8879 75.043 42.8785 75.3919C42.8781 75.6378 42.9349 75.8805 43.0447 76.1006C43.1544 76.3207 43.314 76.5121 43.5107 76.6598C43.701 76.8058 43.9228 76.9054 44.1584 76.9507C44.394 76.996 44.6369 76.9857 44.8678 76.9208C47.9876 75.9943 50.6581 73.9535 52.3714 71.1864C52.4357 71.063 52.5267 70.9554 52.6378 70.8714C52.7489 70.7875 52.8772 70.7292 53.0135 70.701C53.1499 70.6727 53.2908 70.6751 53.4261 70.708C53.5613 70.7409 53.6876 70.8035 53.7958 70.8912C55.4918 72.2389 57.5985 72.9647 59.7648 72.9477C64.5968 72.9477 68.5289 69.5334 68.5289 65.336C68.5289 61.1453 64.5809 57.7359 59.7269 57.7359C58.2587 57.7264 56.8083 58.0568 55.4891 58.7011C55.346 58.7728 55.1869 58.8066 55.027 58.7994C54.8671 58.7922 54.7117 58.7443 54.5756 58.6601C54.4395 58.5759 54.3271 58.4583 54.2493 58.3185C54.1714 58.1786 54.1306 58.0212 54.1307 57.8612V36.3245C54.1713 33.5371 53.1679 30.8354 51.3177 28.7503C49.4674 26.6652 46.9042 25.3476 44.1318 25.0564C42.322 24.911 40.5048 25.2223 38.8466 25.9617C37.1885 26.7012 35.7425 27.8451 34.6414 29.2887C34.5501 29.3968 34.4362 29.4838 34.3078 29.5434C34.1794 29.603 34.0396 29.6339 33.898 29.6339C33.7564 29.6339 33.6166 29.603 33.4882 29.5434C33.3598 29.4838 33.246 29.3968 33.1546 29.2887C31.7047 27.4089 29.6867 26.0474 27.4008 25.4067C27.1736 25.3425 26.9345 25.3324 26.7027 25.3771C26.4708 25.4218 26.2527 25.52 26.0656 25.6641C25.8803 25.8039 25.7301 25.985 25.627 26.193C25.5239 26.401 25.4706 26.6301 25.4714 26.8623C25.4663 27.2229 25.5816 27.575 25.799 27.8627C26.0165 28.1505 26.3237 28.3576 26.672 28.4511C28.286 28.921 29.7046 29.9004 30.716 31.2432C31.7273 32.5859 32.2769 34.2199 32.2828 35.9009V58.6877C32.284 59.1153 32.4547 59.525 32.7575 59.827C33.0602 60.1289 33.4704 60.2985 33.898 60.2985C34.3256 60.2985 34.7357 60.1289 35.0385 59.827C35.3413 59.525 35.512 59.1153 35.5131 58.6877V35.9009C35.5141 33.8448 36.3316 31.8734 37.786 30.4202C39.2404 28.9669 41.2125 28.1509 43.2685 28.1516H43.2686ZM59.7648 69.8177C56.658 69.8177 54.1308 67.807 54.1308 65.336C54.1679 64.6434 54.3731 63.9703 54.7286 63.3748C55.0842 62.7793 55.5794 62.2793 56.1714 61.918C57.2244 61.2189 58.4631 60.8523 59.7269 60.8659C62.8191 60.8659 65.3989 62.9127 65.3989 65.336C65.3989 67.807 62.8716 69.8177 59.7648 69.8177Z" fill="white"/>
</g>
<defs>
<filter id="filter0_df_2_228" x="-11" y="-7" width="116" height="116" filterUnits="userSpaceOnUse" color-interpolation-filters="sRGB">
<feFlood flood-opacity="0" result="BackgroundImageFix"/>
<feColorMatrix in="SourceAlpha" type="matrix" values="0 0 0 0 0 0 0 0 0 0 0 0 0 0 0 0 0 0 127 0" result="hardAlpha"/>
<feOffset/>
<feGaussianBlur stdDeviation="12.5"/>
<feComposite in2="hardAlpha" operator="out"/>
<feColorMatrix type="matrix" values="0 0 0 0 1 0 0 0 0 1 0 0 0 0 1 0 0 0 1 0"/>
<feBlend mode="normal" in2="BackgroundImageFix" result="effect1_dropShadow_2_228"/>
<feBlend mode="normal" in="SourceGraphic" in2="effect1_dropShadow_2_228" result="shape"/>
<feGaussianBlur stdDeviation="0.5" result="effect2_foregroundBlur_2_228"/>
</filter>
</defs>
</svg>
