<svg width="90" height="102" viewBox="0 0 90 102" fill="none" xmlns="http://www.w3.org/2000/svg">
<g filter="url(#filter0_df_2_249)">
<path d="M27.1762 25.0216C26.9518 25.0193 26.7297 25.066 26.5252 25.1582C26.3207 25.2505 26.1388 25.3862 25.992 25.5559C25.8421 25.7302 25.7313 25.9346 25.667 26.1553C25.6028 26.376 25.5867 26.6079 25.6197 26.8354C26.1169 30.3852 27.583 33.7292 29.8571 36.4999C32.1311 39.2706 35.125 41.3608 38.5097 42.5406C38.6894 42.6038 38.8456 42.7201 38.9577 42.8742C39.0697 43.0282 39.1322 43.2127 39.1369 43.4032C39.1416 43.5936 39.0883 43.781 38.984 43.9404C38.8797 44.0998 38.7294 44.2237 38.5531 44.2957C35.4218 45.5679 32.744 47.7501 30.866 50.5602C28.9881 53.3703 27.9962 56.6791 28.0186 60.0589C28.0789 64.3886 29.7728 68.5356 32.7609 71.6695C35.749 74.8033 39.8108 76.6925 44.1327 76.9587C48.1345 77.1624 52.0794 75.944 55.2695 73.5193C58.4596 71.0945 60.6891 67.6195 61.5638 63.7091C62.4385 59.7987 61.9019 55.705 60.0489 52.1522C58.1959 48.5994 55.146 45.8164 51.4388 44.2958C51.2624 44.2238 51.1121 44.0999 51.0078 43.9404C50.9036 43.781 50.8502 43.5937 50.8549 43.4032C50.8597 43.2128 50.9222 43.0283 51.0342 42.8742C51.1462 42.7202 51.3025 42.6038 51.4822 42.5406C54.8638 41.3332 57.852 39.2261 60.125 36.4463C62.398 33.6665 63.8695 30.3193 64.3813 26.7651C64.4131 26.5442 64.3971 26.319 64.3344 26.1047C64.2718 25.8904 64.1639 25.692 64.0182 25.523C63.8816 25.3645 63.7123 25.2376 63.5219 25.151C63.3315 25.0645 63.1245 25.0203 62.9153 25.0217C62.5334 25.0008 62.157 25.12 61.8567 25.357C61.5564 25.5939 61.3529 25.9323 61.2843 26.3086C60.7459 30.2463 58.7992 33.8558 55.8045 36.4688C52.8098 39.0818 48.9698 40.5214 44.9954 40.5213C41.021 40.5211 37.1812 39.0812 34.1867 36.468C31.1922 33.8547 29.2457 30.2452 28.7076 26.3074C28.6724 25.96 28.5113 25.6376 28.2548 25.4007C27.9983 25.1639 27.664 25.0291 27.315 25.0217L27.1762 25.0216ZM44.9959 73.85C42.2572 73.85 39.58 73.0379 37.3028 71.5163C35.0256 69.9947 33.2507 67.8321 32.2027 65.3018C31.1546 62.7716 30.8804 59.9873 31.4147 57.3012C31.949 54.6151 33.2678 52.1477 35.2044 50.2112C37.141 48.2746 39.6083 46.9557 42.2944 46.4214C44.9806 45.8871 47.7648 46.1614 50.2951 47.2094C52.8253 48.2575 54.988 50.0324 56.5095 52.3095C58.0311 54.5867 58.8432 57.264 58.8432 60.0027C58.8391 63.674 57.3789 67.1937 54.7829 69.7897C52.1869 72.3857 48.6672 73.8459 44.9959 73.85Z" fill="white"/>
</g>
<defs>
<filter id="filter0_df_2_249" x="-13" y="-7" width="116" height="116" filterUnits="userSpaceOnUse" color-interpolation-filters="sRGB">
<feFlood flood-opacity="0" result="BackgroundImageFix"/>
<feColorMatrix in="SourceAlpha" type="matrix" values="0 0 0 0 0 0 0 0 0 0 0 0 0 0 0 0 0 0 127 0" result="hardAlpha"/>
<feOffset/>
<feGaussianBlur stdDeviation="12.5"/>
<feComposite in2="hardAlpha" operator="out"/>
<feColorMatrix type="matrix" values="0 0 0 0 1 0 0 0 0 1 0 0 0 0 1 0 0 0 1 0"/>
<feBlend mode="normal" in2="BackgroundImageFix" result="effect1_dropShadow_2_249"/>
<feBlend mode="normal" in="SourceGraphic" in2="effect1_dropShadow_2_249" result="shape"/>
<feGaussianBlur stdDeviation="0.5" result="effect2_foregroundBlur_2_249"/>
</filter>
</defs>
</svg>
