<svg width="92" height="102" viewBox="0 0 92 102" fill="none" xmlns="http://www.w3.org/2000/svg">
<g filter="url(#filter0_df_2_252)">
<path d="M64.5682 73.8947L64.5596 73.8911C64.0695 73.6924 63.566 73.4669 63.0356 73.1889C62.8363 73.0917 62.7141 73.03 62.5992 72.9609C62.4607 72.8772 62.3461 72.7592 62.2666 72.6181C62.1872 72.4771 62.1455 72.3179 62.1458 72.1561C62.146 71.9942 62.1881 71.8352 62.268 71.6944C62.3479 71.5536 62.4628 71.4359 62.6017 71.3526C63.6886 70.6908 64.6073 69.7859 65.2855 68.709C66.231 67.1633 66.7255 65.3841 66.713 63.5722C66.713 58.7416 63.2995 54.8116 59.1037 54.8116C58.0253 54.8117 56.9634 55.0757 56.0104 55.5804C55.8673 55.6553 55.7074 55.6921 55.546 55.687C55.3846 55.682 55.2272 55.6355 55.0891 55.5518C54.9509 55.4682 54.8367 55.3503 54.7575 55.2097C54.6782 55.069 54.6366 54.9102 54.6367 54.7487V40.0184C54.621 38.0319 53.8201 36.1323 52.4087 34.7344C51.7812 34.0928 51.0325 33.5824 50.2061 33.2328C49.3796 32.8831 48.492 32.7012 47.5946 32.6976C45.8189 32.7019 44.1137 33.3924 42.8354 34.6249C42.6605 34.7936 42.4269 34.8878 42.1839 34.8877C41.9409 34.8876 41.7074 34.7931 41.5326 34.6243C40.5581 33.7082 39.3431 33.0882 38.0295 32.8367C36.7159 32.5852 35.3578 32.7127 34.1139 33.2041C33.9776 33.2596 33.8301 33.2822 33.6834 33.2701C33.5367 33.258 33.3949 33.2116 33.2695 33.1345C33.1441 33.0575 33.0386 32.952 32.9615 32.8266C32.8844 32.7012 32.838 32.5594 32.8258 32.4127C32.6881 30.799 32.0961 29.2574 31.1185 27.9662C30.1408 26.675 28.8174 25.6871 27.3015 25.117C27.0667 25.0355 26.8155 25.013 26.57 25.0514C26.3245 25.0898 26.0921 25.1878 25.8933 25.337C25.6946 25.4862 25.5355 25.6819 25.43 25.9069C25.3246 26.1319 25.276 26.3794 25.2886 26.6276C25.2991 26.9577 25.4084 27.277 25.6023 27.5443C25.7962 27.8117 26.0658 28.0147 26.3763 28.1273C27.3678 28.5284 28.2162 29.2176 28.8121 30.1058C29.4079 30.994 29.7238 32.0405 29.7189 33.11V61.9076C29.7193 62.3224 29.8842 62.7201 30.1775 63.0134C30.4708 63.3067 30.8685 63.4716 31.2833 63.472C31.4886 63.4745 31.6922 63.4355 31.8821 63.3573C32.0719 63.2792 32.2441 63.1636 32.3882 63.0174C32.5346 62.8722 32.6506 62.6992 32.7295 62.5087C32.8084 62.3182 32.8486 62.1139 32.8477 61.9076V39.8559C32.8328 38.8716 33.1831 37.9167 33.8309 37.1755C34.4786 36.4343 35.378 35.9593 36.3554 35.8423C36.891 35.7881 37.4321 35.8482 37.9428 36.0186C38.4535 36.189 38.9222 36.4659 39.3179 36.831C39.7157 37.1943 40.0334 37.6364 40.251 38.1292C40.4685 38.622 40.5812 39.1546 40.5817 39.6933V61.9076C40.5882 62.3249 40.7585 62.7229 41.0559 63.0156C41.3532 63.3084 41.7538 63.4725 42.1711 63.4725C42.5884 63.4725 42.989 63.3084 43.2864 63.0156C43.5837 62.7229 43.754 62.3249 43.7605 61.9076V39.8687C43.7492 38.8907 44.0952 37.9421 44.7336 37.2011C45.372 36.46 46.2589 35.9775 47.2279 35.844C47.7674 35.7883 48.3125 35.8463 48.8282 36.0142C49.3439 36.1822 49.8187 36.4563 50.222 36.819C50.6253 37.1816 50.948 37.6248 51.1695 38.1199C51.391 38.6149 51.5063 39.1509 51.5079 39.6933V63.6095C51.4894 65.3973 51.9807 67.1533 52.9245 68.6718C52.9737 68.7324 53.0164 68.7982 53.0515 68.8679C53.7069 69.9056 54.5014 70.8485 55.4128 71.6704C55.5227 71.7727 55.6065 71.8999 55.6571 72.0412C55.7077 72.1825 55.7236 72.334 55.7037 72.4828C55.6837 72.6316 55.6283 72.7734 55.5421 72.8964C55.456 73.0193 55.3417 73.1199 55.2087 73.1895C54.6654 73.4738 54.1064 73.7268 53.5343 73.9473C53.2222 74.0648 52.9574 74.2816 52.7808 74.5644C52.6041 74.8473 52.5253 75.1803 52.5566 75.5123C52.5737 75.7574 52.6482 75.9951 52.774 76.2062C52.9 76.4172 53.0737 76.5957 53.2813 76.7271C53.4755 76.8537 53.6967 76.9328 53.927 76.958C54.1574 76.9833 54.3904 76.954 54.6074 76.8726C56.0065 76.33 57.3528 75.6603 58.6296 74.8718C58.7772 74.7815 58.9471 74.7339 59.1202 74.7346C59.2933 74.7352 59.4628 74.784 59.6097 74.8755C60.8842 75.6692 62.2324 76.3378 63.6356 76.872C63.8691 76.9495 64.1177 76.9706 64.361 76.9338C64.6043 76.8969 64.8354 76.803 65.0355 76.6597C65.2356 76.5165 65.3989 76.328 65.5123 76.1096C65.6256 75.8912 65.6857 75.649 65.6876 75.403C65.6712 75.069 65.5561 74.7474 65.3568 74.4789C65.1575 74.2104 64.8831 74.0071 64.5682 73.8947ZM59.1037 69.2039C58.469 69.183 57.8478 69.0149 57.2892 68.7129C56.7305 68.4109 56.2497 67.9832 55.8846 67.4636C55.8094 67.3704 55.7434 67.2701 55.6878 67.1641C54.9891 66.1113 54.623 64.8729 54.6367 63.6094C54.6367 60.5191 56.6827 57.9403 59.1037 57.9403C61.5738 57.9403 63.5842 60.4666 63.5842 63.5721C63.5842 66.6776 61.5738 69.204 59.1037 69.204V69.2039Z" fill="white"/>
</g>
<defs>
<filter id="filter0_df_2_252" x="-12" y="-7" width="116" height="116" filterUnits="userSpaceOnUse" color-interpolation-filters="sRGB">
<feFlood flood-opacity="0" result="BackgroundImageFix"/>
<feColorMatrix in="SourceAlpha" type="matrix" values="0 0 0 0 0 0 0 0 0 0 0 0 0 0 0 0 0 0 127 0" result="hardAlpha"/>
<feOffset/>
<feGaussianBlur stdDeviation="12.5"/>
<feComposite in2="hardAlpha" operator="out"/>
<feColorMatrix type="matrix" values="0 0 0 0 1 0 0 0 0 1 0 0 0 0 1 0 0 0 1 0"/>
<feBlend mode="normal" in2="BackgroundImageFix" result="effect1_dropShadow_2_252"/>
<feBlend mode="normal" in="SourceGraphic" in2="effect1_dropShadow_2_252" result="shape"/>
<feGaussianBlur stdDeviation="0.5" result="effect2_foregroundBlur_2_252"/>
</filter>
</defs>
</svg>
